<svg version="1.1" id="Layer_1" xmlns="http://www.w3.org/2000/svg" xmlns:xlink="http://www.w3.org/1999/xlink" x="0px" y="0px"
	 viewBox="0 0 512 512" style="enable-background:new 0 0 512 512;" xml:space="preserve">
<g>
	<path d="M89.4,145.3c111.3,0,221.8,0,333.2,0c-6.9,111-13.9,221.8-20.8,333c-97.4,0-194.2,0-291.6,0
		C103.3,367.3,96.3,256.6,89.4,145.3z"/>
	<path d="M61.9,61.7c2.3,0,4.3,0,6.4,0c32.8,0,65.6-0.1,98.5,0.1c4.6,0,6.9-1.5,8.7-5.5c3.4-7.5,7.3-14.9,11.1-22.4
		c12.3,0,24.4,0,36.6,0c32.4,0,64.9,0.1,97.3-0.1c3.5,0,5.6,0.9,7.1,4.3c2.9,6.5,6.5,12.7,9.4,19.2c1.6,3.6,3.8,4.5,7.5,4.5
		c33-0.2,66-0.1,99-0.1c2.1,0,4.2,0,6.5,0c0,18.6,0,36.7,0,55c-129.4,0-258.5,0-388.1,0C61.9,98.5,61.9,80.4,61.9,61.7z"/>
</g>
</svg>
