<svg version="1.1" id="Layer_1" xmlns="http://www.w3.org/2000/svg" xmlns:xlink="http://www.w3.org/1999/xlink" x="0px" y="0px"
	 viewBox="0 0 512 512" style="enable-background:new 0 0 512 512;" xml:space="preserve">
	 
<g>
	<path  d="M284.7,123.2c34.6,34.6,69.1,69.1,104,104c-0.9,1-2.1,2.4-3.4,3.7c-60.5,60.5-121,121-181.5,181.4
		c-9.8,9.8-21.3,16.8-34.5,20.7c-30.4,9-60.9,17.8-91.4,26.7c-5.3,1.5-10.7,2.7-16.1-0.2c-8.6-4.7-13-12.5-10.2-22.4
		c9.7-34.1,19.9-68.1,30.2-102.1c3.1-10.1,9.9-18.1,17.2-25.5c61.1-61.4,122.3-122.7,183.4-184.1
		C283.1,124.5,284.1,123.7,284.7,123.2z"/>
	<path d="M407.1,207.3c-33.9-33.9-68.4-68.4-103.6-103.6c3.6-3.4,7.6-7.2,11.5-11c10.6-10.3,20.7-21.3,32-30.7
		c18.9-15.6,46.7-14.9,64.9,1.5c13.1,11.8,25.8,24.3,37.1,37.7c16.8,19.8,16.4,46.8-1,66C435.2,181.5,420.6,194.2,407.1,207.3z"/>
</g>
</svg>
