
<svg version="1.1" id="Layer_1" xmlns="http://www.w3.org/2000/svg" xmlns:xlink="http://www.w3.org/1999/xlink" x="0px" y="0px"
	 viewBox="0 0 512 512" style="enable-background:new 0 0 512 512;" xml:space="preserve">
<style type="text/css">
	.st0{fill:#ED1B50;}
	.st1{fill:#EE1F58;}
</style>
<g>
	<path class="st0" d="M352.6,226.5c-19.1-14.8-37.5-29.1-59.1-45.8c-53.4,42.5-107.1,85.3-160.6,127.9c-42.2-25.8-46.1-67.7-9.7-97
		c31.4-25.3,63.8-49.7,95.7-74.6c3.4-2.6,6.6-5.4,8.8-7.2c-18.8-15.1-36.6-29.4-55.9-44.9c-14.8,11.8-29.6,23.6-44.4,35.2
		c-23.5,18.5-48.3,36-70.4,55.4C-0.5,226.4,5.2,298.6,70,349.5c56.3,44.2,113.1,87.9,169.7,131.8c5.3,4.1,10.8,8.1,15,11.2
		c19.7-14.9,38.3-29,59.6-45.1c-41-31.7-81.8-63.2-123.8-95.7C244.4,310,298.8,268,352.6,226.5z"/>
	<path class="st1" d="M254.9,509.3l-8.1-6c-1.2-0.9-2.6-1.9-4-3c-3.5-2.5-7.4-5.4-11.2-8.4c-15.9-12.4-31.9-24.7-47.8-37
		c-40.1-31-81.5-63-121.9-94.8C25.5,331.7,5,295.6,3.9,258.5c-1-34,14.7-67,44.2-93c15.2-13.4,31.8-26,47.9-38.2
		c7.6-5.8,15.5-11.8,23.1-17.7c10.2-8,20.5-16.2,30.5-24.2c4.6-3.7,9.2-7.3,13.8-11l8.4-6.7l77.3,62l-12.9,10.5
		c-0.6,0.5-1.3,1.1-2,1.7c-2,1.6-4.4,3.7-7,5.7c-10.2,7.9-20.5,15.9-30.6,23.6c-21.5,16.6-43.7,33.7-65,50.8
		c-13.6,10.9-20.6,24-19.7,36.9c0.8,11.8,7.9,23.3,20.4,32.8l161.1-128.3l81.3,63L212.6,351.6l123.9,95.8L254.9,509.3z M171.8,102.2
		c-1.8,1.4-3.6,2.9-5.4,4.3c-10,8-20.4,16.2-30.7,24.3c-7.8,6.1-15.7,12.1-23.5,18c-15.7,11.9-31.9,24.2-46.3,37
		c-23.7,20.9-35.8,45.8-35.1,72c0.8,28.9,17.7,57.7,47.5,81.1c40.4,31.7,81.8,63.7,121.8,94.7c16,12.3,31.9,24.7,47.9,37
		c2.2,1.7,4.5,3.4,6.6,5l37.5-28.4l-123.7-95.6l162.1-125.1l-36.9-28.6L133.9,325.1l-8.1-4.9C101,305,86.5,283.9,85,260.8
		c-1.4-21.9,9.1-43.1,29.8-59.7c21.5-17.3,43.8-34.5,65.4-51.2c8.5-6.6,17.3-13.4,26-20.1L171.8,102.2z"/>
</g>
<g>
	<path class="st0" d="M451.2,171.8C388.6,122.1,324.9,73.2,261.6,24c-1.5-1.2-3.6-1.9-7.6-4c-14.1,11.5-27.8,23.1-42,34.2
		c-12.1,9.4-12.4,9.5-0.3,19c57.6,44.7,115.2,89.4,172.8,134c40.4,31.3,41.1,66.6,1.5,98.3c-19.2,15.4-38.8,30.5-58.5,45.4
		c-13.9,10.5-28.2,20.6-42.7,31.2c20.6,15.6,38.9,29.5,60.5,45.8c7.2-6.5,14.1-13.5,22-19.7c28.2-22.3,57.2-44,84.9-66.6
		C510.3,294,510.1,218.5,451.2,171.8z"/>
	<path class="st1" d="M346,445.4l-83.9-63.5l14.7-10.7c4.5-3.3,9-6.5,13.5-9.7c10.1-7.3,19.6-14.1,29-21.3
		c22.8-17.3,41.3-31.7,58.2-45.2c11.1-8.9,24.3-22.7,24.2-38.2c-0.1-15.8-14-29.8-25.5-38.8c-64.7-50.2-121.3-94-172.8-134
		c-7.6-5.9-14.1-11-14.1-20c0-9,6.2-13.8,14.1-20l0.3-0.2c9.8-7.6,19.6-15.7,29-23.5c4.2-3.5,8.5-7,12.8-10.5l6.9-5.6l7.9,4.1
		c1.3,0.7,2.4,1.2,3.3,1.7c2.2,1,4.2,2,6.3,3.7c17.7,13.8,35.5,27.6,53.3,41.3c44.9,34.8,91.3,70.7,136.4,106.5l0,0
		c31.6,25.1,49.2,58.7,49.5,94.8c0.3,36.2-16.9,70.3-48.4,96c-16.8,13.7-34.2,27.2-51.1,40.2c-11.2,8.7-22.8,17.6-34,26.5
		c-5,3.9-9.6,8.2-14.4,12.8c-2.2,2.1-4.5,4.3-6.9,6.4L346,445.4z M307.5,382.3l36.9,28c4.5-4.2,9.3-8.6,14.5-12.7
		c11.3-9,23-18,34.2-26.7c16.7-13,34-26.3,50.5-39.8c25-20.4,38.7-47,38.5-74.9c-0.2-27.7-14.1-53.9-39.2-73.8l0,0
		c-45-35.7-91.4-71.6-136.2-106.3c-17.1-13.2-34.1-26.4-51.2-39.7c-1.8,1.5-3.7,3-5.5,4.6c-9.2,7.6-18.6,15.4-28.3,22.9
		c51.1,39.6,107,83.1,171.1,132.7c23.7,18.4,35.8,38.6,36,59.9c0.2,21.2-11.4,41.2-34.3,59.5c-17.1,13.7-35.8,28.2-58.8,45.6
		C326.4,368.7,316.8,375.6,307.5,382.3z"/>
</g>
</svg>
