<svg version="1.1" id="Layer_1" xmlns="http://www.w3.org/2000/svg" xmlns:xlink="http://www.w3.org/1999/xlink" x="0px" y="0px"
	 viewBox="0 0 480 160" style="enable-background:new 0 0 480 160;" xml:space="preserve">
<g>
	<path d="M13.9,134.2C7.3,129.4,5,122,5,114.7C5,102.1,15.7,85,32.1,79.5c4.2-1.5,11.5-3.1,15-3.1c1.5,0,2.9,1.1,1.3,2.4
		c-15,11.8-24.2,28.2-24.2,39.9c0,2.6,0.5,4.8,1.5,6.5c9.7-3.6,21.6-13.2,37.9-36.6c29.7-42.5,39.1-56.7,44.1-66.7
		c1.5-2.7,2.7-3.7,4.8-2.6c2.6,1.5,4.5,2.4,7.6,4.7c4.5,3.6,3.2,12.3-1.3,20.2c-5.2,9.4-13.2,22.1-25,39.5
		c-28.4,42-48.3,54.7-66.2,54.7C22.3,138.4,17.6,137,13.9,134.2z"/>
	<path d="M96.2,128.3c-7.3-6.6-7.6-10.3,4.5-29.1c6.8-10.3,14.8-21.5,18.4-25.5c0.6-0.8,1.3-1.1,2.6-1.1c4,0,14.2,0.8,14.2,6.9
		c0,3.2-3.2,8.9-8.9,16.8c-8.9,12.6-14.2,21.1-16.1,27c7.6-0.6,17.8-5.3,31.8-24.1l0.5-0.6c1.1-1.5,1.5-1.6,1.9-1.1l0.5,0.5
		c1.1,1.1,1,1.9,0.3,3.1l-0.5,0.8c-7.3,12.1-25.7,31.8-37.8,31.8C103,133.6,100.7,132,96.2,128.3z M132.5,57.1
		c2.4-5.2,6.1-10.3,9.4-13.9c2.4-2.7,3.9-3.7,5.2-3.4c3.4,1,7.4,3.1,9.2,4.7c1.6,1.3,2.4,2.3,1.1,3.6c-4.2,4.2-8.9,8.6-10.8,10.5
		c-2.6,2.9-4.8,3.2-7.3,3.2c-2.3,0-5.6-1-6.8-1.8C131.9,59.5,131.9,58.5,132.5,57.1z"/>
	<path d="M179,134.2c-2.1,0-5.5-2.1-8.1-4.7c-3.6-3.7-4.2-7.3-2.3-11.8c3.1-7.4,14.4-20.2,24.2-33.7c-9.5,5.6-25.8,19.5-41,42.9
		c-4.4,6.8-7.3,7.4-10.7,6.3c-1.8-0.6-5.6-3.1-6.8-3.9c-2.4-1.6-3.9-4.8-3.4-9.4c0.6-5.3,6.3-13.7,11.6-20.8
		c17.8-23.4,21.6-28.1,24.2-28.1c2.7,0,6.5,3.9,11.1,6.5c2.9,1.5,3.7,3.2,3.4,5.8c9.7-7.4,15.3-10.2,18.4-10.2
		c1.9,0,4.4,0.6,6.6,2.4c2.3,1.8,3.6,3.4,3.6,6.5c0,3.7-1.9,9-4.8,14c12.6-9.7,15.8-11.6,19.4-11.6c2.1,0,3.7,0.5,6,1.6
		c3.2,1.6,4.8,4.4,4.8,6.5c0,7.3-11.1,18.2-15.2,27.4c5.3-1,11-3.7,15.3-7.3c0.3-0.3,0.8-0.3,1,0c0.2,0.5,0.3,1.8,0.3,2.4
		s-0.2,1.6-1.3,2.9c-3.9,4.5-12.9,11.9-21.1,11.9c-9.2,0-13.9-9.4-13.2-14c0.5-3.7,2.1-7.7,4.7-11.9c-4.7,3.7-9.2,10.3-17.6,21.5
		C183,132.1,181.1,134.2,179,134.2z"/>
	<path d="M250,137.1c-1-1-1.3-2.9-1.3-5.6c0-0.8,0-1.8,0.2-2.7c-11.1-3.2-11.8-5.8-10.3-8.4c10.2-17.6,39.7-60,55-80.9
		c-1.8-2.7-2.4-6.9-3.7-10.2c-1.1-2.9-0.6-4,2.1-5.5c6.3-3.1,16.3-5.2,26.5-5.2c11,0,20.2,2.7,25.7,6.6c8.7,6,12.4,19.4,4.8,32.1
		c-3.9,6.8-12.4,15.2-23.6,20.2c4,3.4,6.8,7.6,7.4,13.6c0.8,6.9-1.6,13.7-5,18.9c-13.1,19.4-36.5,29.2-67.1,29.2
		C252.4,139.2,251.3,138.4,250,137.1z M267.5,116.6c31.6,0.8,51-10.8,56-24.1c-2.1-7.4-18.2-11-33.4-10.8
		c-8.2,11.8-16.8,24.1-23.7,34.9H267.5z M299.4,68.4c26.8-4.5,42.6-17.4,45-29.5c-4-2.1-10.5-3.2-17.6-3.2c-5.3,0-11,1-16.1,2.9
		c4.2,3.9,6.1,5.5,4.4,8.1C311,52.1,305.5,59.8,299.4,68.4z"/>
	<path d="M341.5,131.5c-2.7-2.1-4.8-4.2-5.8-6.3c-3.2-6.1-0.8-13.4,8.7-26c8.9-11.8,14.7-20.7,16.9-25c1.9-3.6,2.4-4,4.5-3.4
		c4.4,1.6,9.2,2.6,11.3,3.7c4,2.1,4.7,6.9-0.8,14.4c-7.7,10.2-20.3,27-21.6,36c7.6-1,17.6-6.9,31.6-25.7l0.5-0.6
		c1.1-1.5,1.5-1.6,1.9-1.1l0.5,0.5c1.1,1.1,1,1.9,0.3,3.1l-0.5,0.8c-6.8,11.3-25.7,33.4-37.8,33.4
		C347.8,135.2,344.3,133.4,341.5,131.5z M376.4,57.2c4-4.8,9.5-12.9,12.4-17.6c0.5-0.8,0.8-1,1.6-0.6c4,1.6,7.4,4.2,8.9,6.8
		c1.1,1.9,1,3.7-1,6c-3.7,3.9-6.6,6.6-8.1,7.6c-2.7,1.8-5.2,2.1-8.6,2.1c-1.6,0-4.8-0.6-5.6-1.5C375.4,59.3,375.4,58.4,376.4,57.2z"
		/>
	<path d="M380.3,123.3c-2.6-3.6-1.6-12.1,6.1-24.1c2.9-4.5,7.4-10.8,12.4-17.8c-4.4,0.3-6.5-0.5-7.1-2.1c-0.6-1.3-1.1-4.5-1.1-5.6
		c0-1.1,0.8-1.5,2.9-1.8c4-0.5,8.6-1,13.2-1.5c7.1-10,14-20,17.6-26.6c2.3-4.2,2.7-5,3.9-5c1.3,0,4.2,1,8.1,2.9
		c3.9,1.9,6.3,4.2,6.3,7.6c0,3.9-3.4,9.5-9.4,18.7c5-0.5,9-0.6,11.8-0.8c2.1,0,2.6,0.2,2.6,1c0,0.8-0.3,2.7-1.1,3.9
		c-0.6,0.6-1.6,1.3-4.2,1.9c-3.9,1-9.4,2.3-15.3,3.4c-9.4,13.6-22.3,33.1-27.3,44.2c0.8,0.2,1.8,0.3,2.7,0.3
		c5.5,0,13.2-3.6,19.4-9.2c0.3-0.3,0.8-0.3,1,0c0.2,0.5,0.3,1.8,0.3,2.4s-0.2,1.6-1.3,3.1c-4.4,6-15,15.5-25.2,15.5
		C390.1,133.8,384.6,129.4,380.3,123.3z"/>
	<path d="M425.3,137.3c-1.8-1.9-2.9-3.7-3.6-5.3c-0.6-1.5-0.3-2.4,1-2.9c16.1-5.5,24.1-13.1,24.1-18.2c0-6-10.5-10.7-10.5-19.2
		c0-6.8,5-12.9,12.4-17.1c4-2.4,9-3.9,11.8-3.9c4.2,0,7.9,1.6,11.5,7.1c3.9,6.1,3.6,8.1,1.8,8.7c-11.3,3.6-23.4,10.5-23.4,16.1
		c0,4.8,10,7.4,10,17.6c0,5.2-2.4,10.3-9.8,15.7c-3.6,2.6-10,5.5-15.8,5.5C430.3,141.3,427.7,139.9,425.3,137.3z"/>
</g>
</svg>
