
<svg version="1.1" xmlns="http://www.w3.org/2000/svg" xmlns:xlink="http://www.w3.org/1999/xlink" x="0px" y="0px"
	 viewBox="0 0 503 212" style="enable-background:new 0 0 503 212;" xml:space="preserve">
<style type="text/css">
	.st0{fill:#2D282D;}
	.st1{fill:#FE0000;}
	.st2{fill:#C00202;}
</style>
<g id="angle_brackets">
	<g>
		<path class="st0" d="M448.5,183.2c-12.5,16-19.5,18-38.2,9.8l-12-5.5c-17.2-8-18.8-14-5-27.2l53.2-50.5L397,74.5
			C380.5,62.7,379.3,56,390,39l7.8-11.8c10.5-16.5,17.2-17,30.8-3L490,88.7c14,14.5,14.5,21.8,2,37.8L448.5,183.2z"/>
	</g>
	<g>
		<path class="st0" d="M54.5,28.8C67,12.8,74,10.8,92.7,19l12,5.5c17.2,8,18.8,14,5,27.2l-53.2,50.5l49.5,35.3
			c16.5,11.8,17.8,18.5,7,35.5l-7.8,11.8c-10.5,16.5-17.2,17-30.8,3L13,123.3c-14-14.5-14.5-21.8-2-37.8L54.5,28.8z"/>
	</g>
</g>
<g id="shape">
	<path class="st1" d="M251.8,47.6c10.9-9.6,21.9-19.1,32.8-28.8c13.8-12.3,25.5-12.3,39.2,0.3c16.7,15.3,33.3,30.6,49.7,46.1
		c11.8,11.1,12,23,0.1,34.1c-34.1,31.9-68.3,63.6-102.8,95.1c-11.2,10.3-24.2,10.8-35.1,0.8c-26.9-24.6-53.3-49.7-79.8-74.5
		c14.4,1.4,24.9-4.5,34.6-13.9c17.6-17.2,36.1-33.5,54-50.3C247.3,53.9,249.4,50.6,251.8,47.6z"/>
	<path class="st2" d="M251.8,47.6c-2.4,3-4.5,6.3-7.4,8.9c-18,16.8-36.4,33.2-54,50.3c-9.7,9.4-20.2,15.3-34.6,13.9l0.2,0.1
		c-0.9-0.8-1.8-1.5-2.7-2.3c-7.6-6.8-15.4-13.4-22.6-20.5c-10-9.9-10.2-22.1,0-31.9c17.4-16.6,35.1-33,53-49.1
		c11.4-10.3,23.7-10.2,35.1,0C230.1,27.1,240.9,37.4,251.8,47.6z"/>
</g>
</svg>
