 
 
<svg version="1.1" id="Layer_1" xmlns="http://www.w3.org/2000/svg" xmlns:xlink="http://www.w3.org/1999/xlink" x="0px" y="0px"
	 viewBox="0 0 512 512" style="enable-background:new 0 0 512 512;" xml:space="preserve">
<g>
	<path d="M507.4,266.9c0,53.8,0,107.5,0,161.3c0,15.3-9.4,22.1-24,17.4c-26.3-8.4-52.8-15.3-80.4-18c-24.7-2.4-48.8,0.8-72.6,7
		c-12.7,3.3-25.2,7.7-37.7,11.9c-12.9,4.3-22.3-2-22.4-15.6c-0.2-19.2,0-38.4,0-57.7c0-87.5,0.1-175.1-0.1-262.6
		c0-8.8,2.6-15.1,10.3-19.8c20.1-12.3,41.8-20.1,65.1-23.8c52.9-8.3,103.4,1.7,152.7,20.5c7.3,2.8,9.3,8.4,9.3,15.7
		C507.3,157.9,507.4,212.4,507.4,266.9z"/>
	<path d="M241.8,269.4c0,53.4,0,106.7,0,160.1c0,16-8.7,21.9-23.9,16.4c-23.4-8.5-47.2-15.2-72-17.9c-27.6-3.1-54.6,0.9-81.2,7.6
		c-12.2,3.1-24.3,6.8-36.3,10.4c-13.9,4.1-23.7-2.8-23.7-17.3c0-108.3,0-216.6,0-324.9c0-10.2,2.1-13.2,11.7-17
		C52.7,72.2,90.6,64.4,129.7,64c34.3-0.3,67.4,6.6,97.7,24c1,0.6,2,1.2,3,1.7c8.3,4.7,11.7,11.1,11.6,21.3
		C241.5,163.9,241.8,216.7,241.8,269.4z"/>
</g>
</svg>
