<svg version="1.1" id="Layer_1" xmlns="http://www.w3.org/2000/svg" xmlns:xlink="http://www.w3.org/1999/xlink" x="0px" y="0px"
	 viewBox="0 0 512 512" style="enable-background:new 0 0 512 512;" xml:space="preserve">
<g>
	<path d="M358.2,367.9c14.6,14.6,28.9,28.9,43.1,43.2c-77.4,81-211.3,84.5-295.7,10.9C12.1,340.4,7,204.4,79,117.4
		c80.4-97.1,230.3-109.8,322.8-16.3c18.6-18.7,37.2-37.4,56.5-56.7c8.4,8.4,15.7,15.7,22.8,23.2c1,1,1.1,3.2,1.1,4.9
		c0,49.8,0,99.5,0,149.3c0,0.6-0.2,1.3-0.4,3c-1.9,0-4,0-6.1,0c-48,0-96.1,0.1-144.1-0.2c-3.2,0-7-1.8-9.5-4
		c-6.7-5.8-12.8-12.2-19.1-18.3c18.9-18.9,37.2-37.1,55.4-55.3c-46-50.4-135.4-67.6-204.2-15.8c-68.4,51.5-80.9,143.5-38.1,210
		C167.5,420.2,286.5,441.3,358.2,367.9z"/>
</g>
</svg>
